<?xml version="1.0" encoding="UTF-8"?>
<svg width="512" height="512" viewBox="0 0 512 512" xmlns="http://www.w3.org/2000/svg">
  <defs>
    <linearGradient id="arabicGrad1" x1="0%" y1="0%" x2="100%" y2="100%">
      <stop offset="0%" style="stop-color:#1565C0;stop-opacity:1" />
      <stop offset="100%" style="stop-color:#0D47A1;stop-opacity:1" />
    </linearGradient>
    <linearGradient id="arabicGrad2" x1="0%" y1="0%" x2="100%" y2="100%">
      <stop offset="0%" style="stop-color:#FFA000;stop-opacity:1" />
      <stop offset="100%" style="stop-color:#FF8F00;stop-opacity:1" />
    </linearGradient>
  </defs>
  <circle cx="256" cy="256" r="230" fill="url(#arabicGrad1)"/>
  
  <!-- Arabic style paper -->
  <path d="M170,120 L360,120 C370,120 380,130 380,140 L380,380 C380,390 370,400 360,400 L170,400 C160,400 150,390 150,380 L150,140 C150,130 160,120 170,120 Z" fill="#F5F5F5"/>
  
  <!-- Arabic decorative border (right side - RTL) -->
  <path d="M360,120 L360,400 C360,400 370,390 370,380 L370,140 C370,130 360,120 360,120 Z" fill="url(#arabicGrad2)"/>
  
  <!-- Stylized Arabic letter د representing "دفتر" (ledger) -->
  <path d="M300,180 C320,180 335,195 335,215 C335,235 320,250 300,250 L240,250 L240,230 L300,230 C310,230 315,225 315,215 C315,205 310,200 300,200 L240,200 L240,180 L300,180 Z" fill="url(#arabicGrad2)"/>
  
  <!-- Arabic style calculator/counter -->
  <rect x="190" y="290" width="150" height="70" rx="10" fill="#E0E0E0"/>
  <rect x="200" y="300" width="130" height="25" rx="5" fill="#FFFFFF"/>
  <circle cx="215" cy="345" r="10" fill="#FFFFFF"/>
  <circle cx="245" cy="345" r="10" fill="#FFFFFF"/>
  <circle cx="275" cy="345" r="10" fill="#FFFFFF"/>
  <circle cx="305" cy="345" r="10" fill="#FFFFFF"/>
  <circle cx="335" cy="345" r="10" fill="#FFFFFF"/>
  
  <!-- Arabic currency symbols -->
  <text x="310" y="320" font-family="Arial" font-size="20" text-anchor="middle" fill="#555555">ر.س</text>
</svg>
