<?xml version="1.0" encoding="UTF-8"?>
<svg width="512" height="512" viewBox="0 0 512 512" xmlns="http://www.w3.org/2000/svg">
  <defs>
    <linearGradient id="grad1" x1="0%" y1="0%" x2="100%" y2="100%">
      <stop offset="0%" style="stop-color:#1565C0;stop-opacity:1" />
      <stop offset="100%" style="stop-color:#0D47A1;stop-opacity:1" />
    </linearGradient>
    <linearGradient id="grad2" x1="0%" y1="0%" x2="100%" y2="100%">
      <stop offset="0%" style="stop-color:#FFA000;stop-opacity:1" />
      <stop offset="100%" style="stop-color:#FF8F00;stop-opacity:1" />
    </linearGradient>
  </defs>
  <circle cx="256" cy="256" r="230" fill="url(#grad1)"/>
  <path d="M256,85 C161.306,85 85,161.306 85,256 C85,350.694 161.306,427 256,427 C350.694,427 427,350.694 427,256 C427,161.306 350.694,85 256,85 Z M256,115 C334.083,115 397,177.917 397,256 C397,334.083 334.083,397 256,397 C177.917,397 115,334.083 115,256 C115,177.917 177.917,115 256,115 Z" fill="#FFFFFF" fill-opacity="0.2"/>
  <path d="M256,155 C208.557,155 170,193.557 170,241 L170,296 C170,343.443 208.557,382 256,382 C303.443,382 342,343.443 342,296 L342,241 C342,193.557 303.443,155 256,155 Z M256,185 C286.927,185 312,210.073 312,241 L312,296 C312,326.927 286.927,352 256,352 C225.073,352 200,326.927 200,296 L200,241 C200,210.073 225.073,185 256,185 Z" fill="#FFFFFF" fill-opacity="0.7"/>
  <rect x="200" y="240" width="112" height="20" rx="10" fill="url(#grad2)"/>
  <rect x="200" y="270" width="112" height="20" rx="10" fill="url(#grad2)"/>
  <rect x="200" y="300" width="112" height="20" rx="10" fill="url(#grad2)"/>
</svg>
